<?xml version="1.0" encoding="iso-8859-1"?>
<!-- Generator: Adobe Illustrator 19.0.0, SVG Export Plug-In . SVG Version: 6.00 Build 0)  -->
<svg version="1.1" id="Layer_1" xmlns="http://www.w3.org/2000/svg" xmlns:xlink="http://www.w3.org/1999/xlink" x="0px" y="0px"
	 viewBox="0 0 512 512" style="enable-background:new 0 0 512 512;" xml:space="preserve">
<g>
	<rect x="142.884" y="476.279" style="fill:#003638;" width="226.233" height="35.721"/>
	<rect x="238.14" y="339.349" style="fill:#003638;" width="35.721" height="142.884"/>
	<path style="fill:#003638;" d="M256,440.558c-101.765,0-184.558-82.792-184.558-184.558v-17.86h369.116V256
		C440.558,357.767,357.765,440.558,256,440.558z M108.228,273.86c8.848,73.683,71.743,130.977,147.772,130.977
		s138.923-57.294,147.772-130.977H108.228z"/>
</g>
<path style="fill:#00A1A7;" d="M142.884,196.465V256c0,62.372,50.744,113.116,113.116,113.116S369.116,318.372,369.116,256v-59.535
	H142.884z"/>
<path style="fill:#00D7DF;" d="M369.116,202.419v-89.302C369.116,50.744,318.372,0,256,0S142.884,50.744,142.884,113.116v89.302
	H369.116z"/>
<g>
</g>
<g>
</g>
<g>
</g>
<g>
</g>
<g>
</g>
<g>
</g>
<g>
</g>
<g>
</g>
<g>
</g>
<g>
</g>
<g>
</g>
<g>
</g>
<g>
</g>
<g>
</g>
<g>
</g>
</svg>
